<mxfile host="app.diagrams.net" modified="2023-09-23T22:16:31.171Z" agent="Mozilla/5.0 (Windows NT 10.0; Win64; x64) AppleWebKit/537.36 (KHTML, like Gecko) Chrome/116.0.0.0 Safari/537.36" version="21.7.5" etag="dgIitbr6bld7ZDaiXipo" type="github">
  <diagram name="PÃ¡gina-1" id="KMj4u8sZ9Rp9gPbIxc2C">
    <mxGraphModel>
      <root>
        <mxCell id="0" />
        <mxCell id="1" parent="0" />
      </root>
    </mxGraphModel>
  </diagram>
</mxfile>
